<?xml version="1.0" encoding="utf-8"?>
<!-- Generator: Adobe Illustrator 16.0.0, SVG Export Plug-In . SVG Version: 6.00 Build 0)  -->
<!DOCTYPE svg PUBLIC "-//W3C//DTD SVG 1.1//EN" "http://www.w3.org/Graphics/SVG/1.1/DTD/svg11.dtd">
<svg version="1.1" id="Layer_1" xmlns="http://www.w3.org/2000/svg" xmlns:xlink="http://www.w3.org/1999/xlink" x="0px" y="0px"
	 width="334px" height="60px" viewBox="0 0 334 60" enable-background="new 0 0 334 60" xml:space="preserve">
<path fill="#008ECD" d="M71.527,31.978c-1.238,13.211-12.314,23.55-25.802,23.55c-12.448,0-22.842-8.808-25.344-20.552
	c0.237-1.914,1.099-4.538,3.9-5.945c4.744-2.38,10.749,4.688,15.271,9.373c4.521,4.688,12.505,9.95,22.004,6.528
	c6.739-2.429,9.499-8.816,9.97-12.954H71.527z"/>
<path fill="#0A6E87" d="M85.818,30.777l0.625-0.631l-0.172-3.052l1.064-1.077c0.172-0.174,0.17-0.458-0.003-0.63
	c-0.173-0.173-0.456-0.172-0.628,0.002l-0.502,0.508l-0.171-3.031l0.897-0.908c0.172-0.174,0.17-0.458-0.003-0.63
	s-0.456-0.172-0.628,0.003l-0.335,0.339l-0.141-2.492c2.408-2.567,4.277-5.211,3.653-5.832c-0.624-0.623-3.244,1.274-5.783,3.711
	l-2.484-0.122l0.335-0.339c0.172-0.174,0.171-0.457-0.002-0.63s-0.456-0.171-0.626,0.002l-0.897,0.908l-3.021-0.148l0.502-0.508
	c0.172-0.174,0.171-0.458-0.002-0.628c-0.173-0.173-0.456-0.171-0.628,0.002l-1.064,1.076l-3.042-0.148l-0.625,0.631l8.452,3.181
	c-2.49,2.82-4.871,5.834-4.871,5.834l-3.764-0.203l-0.387,0.5l2.624,1.727l-0.228,0.84l0.835-0.235l1.74,2.619l0.496-0.393
	l-0.23-3.775c0,0,2.985-2.413,5.776-4.933l3.235,8.458L85.818,30.777z"/>
<path fill="#00CCFF" d="M71.466,26.432C69.948,13.518,59.002,3.5,45.725,3.5c-14.315,0-25.92,11.647-25.92,26.014
	c0,0.713,0.029,1.419,0.084,2.115c0.372-10.114,6.251-14.699,14.73-13.145c8.565,1.571,15.274,10.808,25.19,13
	C64.892,32.607,69.562,30.688,71.466,26.432z M70.208,36.686C64.406,41.468,52.518,39.78,41.782,30
	c-12.507-11.395-20.272-6.711-21.877,1.809c1.157,13.292,12.276,23.719,25.822,23.719c-12.448,0-22.842-8.808-25.345-20.552
	c0.237-1.914,1.099-4.538,3.901-5.945c4.744-2.38,10.749,4.688,15.271,9.373c4.521,4.688,12.505,9.95,22.004,6.528
	C66.027,43.32,68.746,39.969,70.208,36.686z"/>
<path fill="#424141" d="M128.598,16.005c0.994,0,1.759,0.215,2.297,0.645c0.563,0.43,0.846,1.021,0.846,1.773
	c0,0.376-0.054,0.739-0.162,1.087l-1.048,3.747c-0.188,0.726-0.47,1.235-0.846,1.531c-0.349,0.269-0.859,0.403-1.531,0.403
	c-0.645,0-1.155-0.134-1.531-0.403c-0.349-0.296-0.618-0.766-0.806-1.41l-0.645-2.297c-0.135-0.483-0.295-0.806-0.484-0.967
	c-0.188-0.161-0.55-0.242-1.087-0.242h-4.231l-2.014,7.171h1.772c0.188,0,0.443-0.134,0.766-0.403l1.37-1.208
	c0.403-0.349,0.752-0.604,1.047-0.766c0.296-0.161,0.658-0.242,1.089-0.242c0.482,0,0.872,0.134,1.167,0.403
	c0.323,0.242,0.484,0.564,0.484,0.967c0,0.107-0.027,0.269-0.081,0.483l-1.652,5.6c-0.162,0.592-0.443,1.035-0.846,1.331
	c-0.375,0.269-0.792,0.402-1.249,0.402c-0.752,0-1.315-0.39-1.692-1.169l-0.685-1.409c-0.188-0.403-0.483-0.604-0.887-0.604h-1.571
	l-2.377,8.541h3.546c0.51,0,0.953-0.094,1.33-0.282c0.403-0.214,0.833-0.577,1.29-1.087l2.417-2.66
	c0.43-0.456,0.833-0.779,1.209-0.968c0.403-0.214,0.886-0.321,1.45-0.321c0.591,0,1.074,0.134,1.451,0.402
	c0.375,0.269,0.564,0.672,0.564,1.209c0,0.215-0.041,0.47-0.121,0.766l-1.169,4.07c-0.295,1.021-0.725,1.731-1.29,2.135
	c-0.564,0.402-1.383,0.604-2.457,0.604h-19.219c-0.564,0-0.994-0.093-1.289-0.281c-0.323-0.188-0.483-0.443-0.483-0.766
	c0-0.161,0.04-0.335,0.12-0.523c0.108-0.296,0.283-0.524,0.524-0.686c0.242-0.161,0.39-0.255,0.443-0.281
	c0.43-0.269,0.779-0.537,1.047-0.806c0.269-0.296,0.497-0.767,0.686-1.411l4.956-17.365c0.107-0.349,0.161-0.672,0.161-0.967
	c0-0.322-0.053-0.591-0.161-0.806c-0.081-0.215-0.215-0.443-0.403-0.685c-0.242-0.349-0.363-0.632-0.363-0.846
	c0-0.081,0.027-0.228,0.081-0.443c0.106-0.349,0.349-0.591,0.725-0.725c0.376-0.161,0.927-0.242,1.651-0.242H128.598z"/>
<path fill="#424141" d="M148.98,21.525c1.424,0,2.605,0.511,3.546,1.531c0.94,1.021,1.41,2.417,1.41,4.191
	c0,2.39-0.833,4.834-2.498,7.333c-1.666,2.498-3.774,4.566-6.326,6.205c-2.552,1.611-5.036,2.417-7.453,2.417
	c-2.311,0-4.19-0.47-5.641-1.41c-1.424-0.939-2.136-2.283-2.136-4.028c0-0.646,0.121-1.371,0.363-2.177l2.539-8.662
	c0.054-0.215,0.08-0.376,0.08-0.484c0-0.269-0.067-0.497-0.202-0.685c-0.134-0.188-0.322-0.39-0.564-0.604
	c-0.403-0.35-0.604-0.659-0.604-0.927c-0.027-0.376,0.201-0.779,0.686-1.208c0.483-0.43,1.154-0.779,2.014-1.047
	c0.887-0.295,1.881-0.443,2.982-0.443c1.8,0,3.196,0.443,4.19,1.33c1.021,0.859,1.531,1.988,1.531,3.384
	c0,0.618-0.107,1.29-0.323,2.015l-2.619,8.623c-0.08,0.241-0.121,0.443-0.121,0.604c0,0.349,0.121,0.618,0.362,0.806
	c0.243,0.189,0.578,0.283,1.007,0.283c0.591,0,1.276-0.256,2.055-0.766c0.806-0.537,1.599-1.289,2.377-2.257
	c0.779-0.993,1.41-2.162,1.894-3.505c-1.075-0.94-1.84-1.867-2.297-2.78c-0.43-0.914-0.645-1.854-0.645-2.82
	c0-1.37,0.376-2.524,1.128-3.465C146.469,22.008,147.557,21.525,148.98,21.525z"/>
<path fill="#424141" d="M167.097,21.324c3.412,0,5.882,0.55,7.414,1.652c1.53,1.074,2.296,2.458,2.296,4.15
	c0,0.51-0.055,0.98-0.161,1.41c-0.402,1.772-1.531,3.049-3.385,3.827c-1.826,0.753-3.988,1.129-6.486,1.129
	c-1.262,0-2.444-0.08-3.546-0.242c-0.026,1.397,0.35,2.378,1.128,2.941c0.779,0.563,1.867,0.847,3.265,0.847
	c0.645,0,1.263-0.067,1.853-0.202c0.591-0.161,1.343-0.389,2.256-0.685c0.754-0.269,1.263-0.403,1.531-0.403
	c0.297,0,0.442,0.175,0.442,0.524c0.028,0.939-0.32,1.934-1.046,2.98c-0.726,1.021-1.8,1.894-3.223,2.619
	c-1.424,0.726-3.144,1.089-5.158,1.089c-2.982,0-5.426-0.753-7.333-2.257c-1.907-1.504-2.86-3.693-2.86-6.567
	c0-0.806,0.107-1.745,0.322-2.819c0.672-3.305,2.135-5.789,4.391-7.455C161.08,22.17,163.846,21.324,167.097,21.324z
	 M163.511,30.832c0.107,0.027,0.255,0.04,0.443,0.04c1.128,0,1.988-0.523,2.58-1.571c0.59-1.048,0.872-2.216,0.846-3.505
	c-0.027-0.752-0.243-1.128-0.645-1.128c-0.295,0-0.645,0.242-1.047,0.725c-0.402,0.457-0.805,1.155-1.209,2.095
	C164.102,28.428,163.779,29.543,163.511,30.832z"/>
<path fill="#424141" d="M200.922,37.278c-0.053,0.107-0.079,0.269-0.079,0.484c0,0.188,0.04,0.335,0.121,0.442
	c0.106,0.107,0.241,0.161,0.402,0.161c0.322,0,0.592-0.134,0.806-0.403c0.243-0.295,0.403-0.442,0.484-0.442
	c0.134,0,0.24,0.094,0.321,0.282c0.081,0.16,0.122,0.362,0.122,0.604c0.026,0.778-0.229,1.544-0.767,2.296
	c-0.536,0.725-1.329,1.329-2.377,1.813c-1.021,0.456-2.257,0.685-3.706,0.685c-1.773,0-3.183-0.402-4.231-1.208
	c-1.047-0.833-1.585-1.935-1.611-3.305c0-0.994,0.242-2.108,0.726-3.344l2.217-5.802c0.133-0.35,0.2-0.631,0.2-0.846
	c0-0.35-0.121-0.618-0.362-0.806c-0.215-0.215-0.483-0.322-0.806-0.322c-0.591,0-1.155,0.282-1.692,0.846
	c-0.537,0.538-0.927,1.209-1.169,2.015l-2.498,8.219c-0.106,0.296-0.16,0.578-0.16,0.847c0,0.321,0.065,0.591,0.202,0.806
	c0.133,0.188,0.32,0.389,0.563,0.604c0.188,0.16,0.322,0.308,0.403,0.442c0.08,0.134,0.094,0.296,0.041,0.483
	c-0.107,0.35-0.363,0.604-0.767,0.766c-0.402,0.161-1.034,0.241-1.894,0.241h-9.187c-0.698,0-1.195-0.106-1.49-0.321
	c-0.322-0.242-0.443-0.552-0.363-0.927c0.108-0.322,0.392-0.604,0.848-0.847c0.402-0.215,0.738-0.47,1.006-0.766
	c0.27-0.295,0.497-0.765,0.687-1.409l3.585-11.644c0.054-0.135,0.08-0.323,0.08-0.564c0-0.295-0.066-0.524-0.201-0.685
	c-0.107-0.161-0.296-0.362-0.563-0.604c-0.269-0.215-0.456-0.403-0.564-0.563c-0.107-0.162-0.121-0.376-0.04-0.645
	c0.161-0.618,1.007-1.155,2.538-1.612c1.531-0.483,3.129-0.725,4.794-0.725c1.343,0,2.405,0.376,3.183,1.128
	c0.779,0.726,1.13,1.746,1.048,3.063c1.102-1.585,2.27-2.673,3.506-3.264c1.236-0.618,2.579-0.927,4.028-0.927
	c1.639,0,2.955,0.497,3.949,1.491c1.021,0.994,1.53,2.283,1.53,3.868c0,0.833-0.134,1.652-0.402,2.458L200.922,37.278z"/>
<path fill="#424141" d="M237.097,16.005c1.478,0,2.216,0.605,2.216,1.813c0,0.376-0.081,0.846-0.242,1.41l-0.966,3.264
	c-0.296,0.994-0.659,1.692-1.089,2.095c-0.429,0.403-1.047,0.604-1.853,0.604c-0.672,0-1.194-0.175-1.572-0.524
	c-0.349-0.349-0.685-0.9-1.007-1.652l-0.685-1.652c-0.216-0.51-0.443-0.859-0.686-1.048c-0.241-0.188-0.618-0.282-1.128-0.282
	h-0.926l-5.118,18.01c-0.08,0.35-0.12,0.658-0.12,0.927c0,0.323,0.04,0.592,0.12,0.806c0.107,0.215,0.256,0.443,0.444,0.686
	c0.241,0.376,0.362,0.684,0.362,0.927c0,0.054-0.026,0.188-0.081,0.402c-0.133,0.349-0.402,0.604-0.806,0.766
	c-0.376,0.161-0.926,0.242-1.651,0.242h-9.469c-0.563,0-1.007-0.095-1.33-0.282c-0.295-0.188-0.443-0.457-0.443-0.806
	c0-0.162,0.041-0.322,0.122-0.484c0.106-0.241,0.228-0.416,0.362-0.523c0.162-0.134,0.39-0.296,0.685-0.483
	c0.403-0.242,0.739-0.511,1.008-0.806c0.269-0.296,0.497-0.752,0.685-1.37l5.076-18.01h-0.926c-0.591,0-1.075,0.094-1.451,0.282
	c-0.376,0.188-0.778,0.538-1.208,1.048l-1.33,1.652c-0.617,0.726-1.222,1.276-1.813,1.652c-0.563,0.349-1.182,0.524-1.854,0.524
	c-0.618,0-1.102-0.162-1.451-0.483c-0.35-0.322-0.523-0.766-0.523-1.33c0-0.269,0.041-0.564,0.121-0.886l1.048-3.667
	c0.215-0.752,0.456-1.316,0.725-1.692c0.269-0.403,0.645-0.685,1.128-0.846c0.511-0.188,1.223-0.282,2.136-0.282H237.097z"/>
<path fill="#424141" d="M250.988,21.525c3.653,0,6.339,0.739,8.059,2.216c1.746,1.478,2.619,3.411,2.619,5.802
	c0,0.806-0.109,1.706-0.323,2.699c-0.511,2.203-1.464,4.137-2.86,5.802c-1.396,1.639-3.116,2.914-5.157,3.827
	c-2.015,0.887-4.203,1.33-6.567,1.33c-3.733,0-6.5-0.738-8.3-2.216c-1.773-1.504-2.66-3.492-2.66-5.963
	c0-0.833,0.108-1.76,0.323-2.78c0.511-2.095,1.478-3.949,2.9-5.56c1.45-1.638,3.21-2.901,5.278-3.787
	C246.395,21.981,248.625,21.525,250.988,21.525z M250.866,25.111c-0.563,0-1.167,0.51-1.813,1.531
	c-0.618,0.994-1.356,2.888-2.216,5.682c-0.858,2.793-1.289,4.754-1.289,5.882c0,0.591,0.095,0.994,0.282,1.209
	c0.188,0.188,0.442,0.282,0.767,0.282c0.563,0.054,1.141-0.431,1.731-1.451c0.618-1.021,1.383-3.008,2.297-5.962
	c0.833-2.606,1.249-4.5,1.249-5.682c0-0.564-0.095-0.954-0.282-1.168C251.432,25.219,251.19,25.111,250.866,25.111z"/>
<path fill="#424141" d="M285.77,37.278c-0.055,0.215-0.081,0.376-0.081,0.484c0,0.188,0.04,0.335,0.12,0.442
	c0.107,0.107,0.242,0.161,0.403,0.161c0.322,0,0.591-0.134,0.807-0.403c0.24-0.295,0.402-0.442,0.482-0.442
	c0.136,0,0.242,0.094,0.323,0.282c0.107,0.16,0.161,0.362,0.161,0.604c0.026,0.752-0.242,1.504-0.807,2.256
	c-0.563,0.726-1.355,1.33-2.376,1.813c-1.021,0.484-2.163,0.726-3.426,0.726c-1.585,0-2.847-0.321-3.787-0.967
	c-0.94-0.645-1.545-1.491-1.813-2.538c-0.967,1.074-2.041,1.894-3.224,2.458c-1.153,0.537-2.336,0.806-3.545,0.806
	c-1.88,0-3.465-0.458-4.754-1.37c-1.262-0.94-1.895-2.243-1.895-3.908c0-0.752,0.135-1.531,0.404-2.337l2.578-8.42
	c0.08-0.242,0.12-0.443,0.12-0.605c0-0.295-0.066-0.523-0.2-0.685c-0.135-0.188-0.336-0.376-0.605-0.564
	c-0.269-0.215-0.457-0.403-0.563-0.563c-0.107-0.162-0.12-0.376-0.041-0.645c0.162-0.618,1.008-1.155,2.539-1.612
	c1.53-0.483,3.129-0.725,4.794-0.725c1.559,0,2.7,0.295,3.425,0.887c0.727,0.59,1.088,1.396,1.088,2.417
	c0,0.618-0.093,1.209-0.282,1.773l-2.538,8.381c-0.106,0.295-0.161,0.577-0.161,0.846c0,0.376,0.108,0.657,0.322,0.846
	c0.215,0.189,0.497,0.282,0.847,0.282c0.509,0,0.927-0.147,1.249-0.442c0.322-0.297,0.645-0.793,0.967-1.491l2.458-8.098
	c0.08-0.242,0.12-0.443,0.12-0.605c0-0.295-0.067-0.523-0.201-0.685c-0.135-0.188-0.322-0.376-0.564-0.564
	c-0.269-0.215-0.457-0.403-0.563-0.563c-0.107-0.162-0.121-0.376-0.04-0.645c0.133-0.618,0.967-1.155,2.498-1.612
	c1.531-0.483,3.129-0.725,4.795-0.725c1.557,0,2.698,0.295,3.424,0.887c0.752,0.59,1.128,1.383,1.128,2.377
	c0,0.51-0.106,1.115-0.322,1.813L285.77,37.278z"/>
<path fill="#424141" d="M309.24,21.525c1.504,0,2.698,0.457,3.585,1.37c0.914,0.913,1.37,2.041,1.37,3.384
	c0,0.51-0.053,0.98-0.161,1.41c-0.269,1.101-0.778,1.947-1.531,2.538c-0.752,0.591-1.651,0.887-2.699,0.887
	c-1.021,0-1.799-0.242-2.337-0.725c-0.51-0.484-0.967-1.128-1.369-1.934c-0.215-0.457-0.417-0.792-0.605-1.007
	c-0.188-0.215-0.402-0.322-0.645-0.322c-0.269,0-0.51,0.107-0.725,0.322c-0.188,0.215-0.362,0.59-0.523,1.128l-3.103,10.073
	c-0.055,0.134-0.08,0.335-0.08,0.604c0,0.35,0.093,0.646,0.282,0.887c0.215,0.215,0.496,0.431,0.845,0.646
	c0.322,0.215,0.537,0.39,0.646,0.523c0.107,0.135,0.147,0.309,0.121,0.523c-0.055,0.35-0.255,0.604-0.605,0.766
	c-0.322,0.161-0.886,0.241-1.691,0.241h-10.314c-0.699,0-1.195-0.106-1.491-0.321c-0.322-0.242-0.442-0.552-0.361-0.927
	c0.106-0.322,0.389-0.604,0.845-0.847c0.403-0.215,0.738-0.47,1.008-0.766c0.268-0.295,0.497-0.765,0.685-1.409l3.586-11.644
	c0.054-0.135,0.081-0.323,0.081-0.564c0-0.295-0.067-0.524-0.201-0.685c-0.108-0.161-0.296-0.362-0.565-0.604
	c-0.269-0.215-0.456-0.403-0.563-0.563c-0.107-0.162-0.12-0.376-0.04-0.645c0.161-0.618,1.007-1.155,2.539-1.612
	c1.53-0.483,3.128-0.725,4.794-0.725c1.102,0,2.015,0.255,2.739,0.766c0.726,0.483,1.195,1.182,1.41,2.095
	C305.453,22.479,307.146,21.525,309.24,21.525z"/>
</svg>
